
* Red.Cliff.aka.Chi.bi.2008.DVDRiP.x264.AC3(5.1).NORDIC.mkv-Zen_Bud *

Format                           : Matroska
File size                        : 1 001 MiB
Duration                         : 2h 21mn
Overall bit rate                 : 987 Kbps
Writing application              : HandBrake svn3607
Writing library                  : libmkv 0.6.4.1

Video

Format                           : AVC
Duration                         : 2h 21mn
Bit rate                         : 588 Kbps
Width                            : 720 pixels
Height                           : 434 pixels
Display aspect ratio             : 2.35:1
Stream size                      : 592 MiB (59%)
Writing library                  : x264 core 107
Audio

Format                           : AC-3
Duration                         : 2h 21mn
Bit rate                         : 384 Kbps
Channel(s)                       : 6 channels
Channel positions                : Front: L C R, Side: L R, LFE
Sampling rate                    : 48.0 KHz
Bit depth                        : 16 bits
Stream size                      : 390 MiB (39%)
Language                         : Chinese 

Text #1
Language                         : Swedish

Text #2
Language                         : Danish

Text #3
Language                         : Norwegian

Text #4
Language                         : Finnish

Menu
00:00:00.000                     : Chapter 1
00:12:48.040                     : Chapter 2
 
http://en.wikipedia.org/wiki/Red_Cliff_%28film%29